<svg width="182" height="195" viewBox="0 0 182 195" fill="none" xmlns="http://www.w3.org/2000/svg">
<g id="Group 41">
<path id="Vector 3 (Stroke)" fill-rule="evenodd" clip-rule="evenodd" d="M96.6628 16.0468H0V0H112.71V51.4698H96.6628V16.0468Z" fill="#E1E7E9"/>
<path id="Vector 4 (Stroke)" fill-rule="evenodd" clip-rule="evenodd" d="M165.953 16.0464L165.953 121.334L182 121.334L182 -0.000358582L136.916 -0.000356611L136.916 16.0464L165.953 16.0464Z" fill="#E1E7E9"/>
<path id="Vector 6 (Stroke)" fill-rule="evenodd" clip-rule="evenodd" d="M29.0382 91.7247L29.0382 194.773L45.085 194.773L45.085 75.6779L0.00113539 75.6779L0.00113609 91.7247L29.0382 91.7247Z" fill="#E1E7E9"/>
<path id="Vector 7 (Stroke)" fill-rule="evenodd" clip-rule="evenodd" d="M96.6622 91.7247L96.6622 120.762L112.709 120.762L112.709 75.6779L67.6252 75.6779L67.6252 91.7247L96.6622 91.7247Z" fill="#E1E7E9"/>
<path id="Vector 5 (Stroke)" fill-rule="evenodd" clip-rule="evenodd" d="M165.953 159.348H67.6797V143.301L181.999 143.301V194.771L165.953 194.771V159.348Z" fill="#E1E7E9"/>
</g>
</svg>
