<?xml version="1.0" encoding="UTF-8"?>
<!-- Generator: Adobe Illustrator 26.1.0, SVG Export Plug-In . SVG Version: 6.00 Build 0)  -->
<svg version="1.1" id="Layer_1" xmlns="http://www.w3.org/2000/svg" xmlns:xlink="http://www.w3.org/1999/xlink" x="0px" y="0px" viewBox="0 0 82 40" style="enable-background:new 0 0 82 40;" xml:space="preserve">
<style type="text/css">
	.st0{fill:none;}
	.st1{fill:#53565A;}
	.st2{fill:#C7C7C7;}
	.st3{fill:#8C1515;}
	.st4{fill:#FFFFFF;}
</style>
<rect class="st0" width="82" height="40"/>
<g id="SMCH_v_00000172434993229661382980000002796988058636521884_">
	<g id="SMCH_v_2_">
		<g id="_x3C_Children_x27_s_Health_x3E__2_">
			<path class="st1" d="M76.97,32.27c0-0.11,0.1-0.22,0.21-0.22h0.55c0.11,0,0.21,0.11,0.21,0.22v2.48     c0.11-0.08,0.59-0.47,1.31-0.47c1.28,0,1.74,0.9,1.74,2.13v2.27c0,0.12-0.11,0.21-0.21,0.21h-0.55c-0.12,0-0.21-0.1-0.21-0.21     v-2.29c0-0.74-0.31-1.18-0.9-1.18c-0.69,0-1.08,0.46-1.18,0.66v2.81c0,0.13-0.09,0.21-0.22,0.21h-0.54     c-0.12,0-0.21-0.1-0.21-0.21L76.97,32.27L76.97,32.27z"/>
			<path class="st1" d="M76.07,34.59v0.4c0,0.11-0.09,0.21-0.21,0.21h-0.52v3.47c0,0.12-0.11,0.21-0.21,0.21h-0.55     c-0.12,0-0.21-0.1-0.21-0.21v-3.47h-0.52c-0.13,0-0.21-0.11-0.21-0.21v-0.4c0-0.13,0.09-0.22,0.21-0.22h0.52v-1.26     c0-0.12,0.09-0.22,0.2-0.22h0.01h0.55h0.01c0.12,0,0.2,0.1,0.2,0.22v1.26h0.52C75.99,34.38,76.07,34.47,76.07,34.59z"/>
			<path class="st1" d="M71.76,32.27c0-0.11,0.1-0.22,0.21-0.22h0.55c0.11,0,0.21,0.11,0.21,0.22v6.41c0,0.12-0.11,0.21-0.21,0.21     h-0.55c-0.12,0-0.21-0.1-0.21-0.21V32.27z"/>
			<path class="st1" d="M68.6,36.04c0.47,0,0.91,0.14,0.91,0.14c0.02-0.71-0.16-1.03-0.72-1.03c-0.52,0-1.02,0.15-1.26,0.22     c-0.14,0.03-0.22-0.06-0.25-0.19l-0.09-0.37c-0.03-0.16,0.04-0.23,0.15-0.26c0.08-0.03,0.72-0.26,1.55-0.26     c1.44,0,1.58,0.87,1.58,1.99v2.4c0,0.12-0.11,0.21-0.21,0.21h-0.32c-0.09,0-0.14-0.04-0.19-0.16l-0.11-0.3     C69.39,38.67,68.95,39,68.25,39c-0.85,0-1.45-0.57-1.45-1.5C66.8,36.66,67.45,36.04,68.6,36.04z M68.46,38.2     c0.45,0,0.91-0.32,1.04-0.55V36.9c-0.06-0.04-0.41-0.16-0.82-0.16c-0.53,0-0.93,0.27-0.93,0.74     C67.76,37.89,67.99,38.2,68.46,38.2z"/>
			<path class="st1" d="M63.98,34.28c1.17,0,2.06,0.87,2.06,2.07c0,0.08-0.01,0.24-0.02,0.31c-0.01,0.12-0.11,0.2-0.2,0.2h-3.11     c0.01,0.61,0.56,1.23,1.35,1.23c0.52,0,0.83-0.19,1.1-0.38c0.1-0.07,0.19-0.1,0.26,0.02l0.26,0.41c0.08,0.1,0.12,0.18-0.02,0.3     C65.34,38.72,64.75,39,63.99,39c-1.37,0-2.25-1.07-2.25-2.36C61.74,35.36,62.63,34.28,63.98,34.28z M65.08,36.14     c-0.02-0.55-0.45-1.03-1.11-1.03c-0.71,0-1.14,0.46-1.21,1.03H65.08z"/>
			<path class="st1" d="M55.15,32.24c0-0.1,0.09-0.18,0.19-0.18h0.64c0.11,0,0.19,0.09,0.19,0.18v2.73h3.57v-2.73     c0-0.1,0.08-0.18,0.19-0.18h0.64c0.1,0,0.19,0.09,0.19,0.18v6.47c0,0.1-0.09,0.18-0.19,0.18h-0.64c-0.11,0-0.19-0.09-0.19-0.18     v-2.82h-3.57v2.82c0,0.1-0.08,0.18-0.19,0.18h-0.64c-0.1,0-0.19-0.09-0.19-0.18V32.24z"/>
			<path class="st1" d="M47.37,38.54c-0.07-0.05-0.13-0.14-0.08-0.24l0.2-0.42c0.05-0.1,0.18-0.13,0.29-0.06     c0.26,0.15,0.59,0.33,1.12,0.33c0.38,0,0.59-0.19,0.59-0.44c0-0.3-0.34-0.5-0.97-0.78c-0.69-0.31-1.22-0.68-1.22-1.43     c0-0.57,0.4-1.23,1.49-1.23c0.62,0,1.09,0.19,1.32,0.33c0.11,0.08,0.16,0.22,0.1,0.33l-0.16,0.31c-0.07,0.14-0.2,0.13-0.29,0.09     c-0.31-0.14-0.61-0.22-0.96-0.22c-0.39,0-0.57,0.2-0.57,0.4c0,0.29,0.32,0.47,0.77,0.66c0.83,0.35,1.45,0.66,1.45,1.49     c0,0.7-0.6,1.32-1.61,1.32C48.14,39,47.62,38.72,47.37,38.54z"/>
			<path class="st1" d="M46.17,31.96c0.48,0,0.84,0.44,0.84,1.13c0,0.82-0.34,1.42-0.69,1.84c-0.07,0.07-0.14,0.08-0.2,0.02     l-0.23-0.18c-0.07-0.07-0.05-0.13,0.01-0.2c0.26-0.33,0.5-0.76,0.5-1.18c0-0.12-0.01-0.2-0.05-0.26c-0.07,0.07-0.19,0.1-0.3,0.1     c-0.36,0-0.56-0.28-0.56-0.62C45.49,32.24,45.78,31.96,46.17,31.96z"/>
			<path class="st1" d="M41.05,34.59c0-0.11,0.1-0.22,0.21-0.22h0.23c0.1,0,0.16,0.05,0.18,0.14l0.14,0.39     c0.1-0.12,0.61-0.62,1.51-0.62c1.37,0,1.74,0.96,1.74,2.13v2.27c0,0.12-0.11,0.21-0.21,0.21h-0.55c-0.12,0-0.21-0.1-0.21-0.21     v-2.31c0-0.73-0.3-1.16-0.89-1.16c-0.71,0-1.12,0.5-1.19,0.66v2.81c0,0.15-0.08,0.21-0.26,0.21h-0.5c-0.12,0-0.21-0.1-0.21-0.21     V34.59z"/>
			<path class="st1" d="M37.94,34.28c1.17,0,2.06,0.87,2.06,2.07c0,0.08-0.01,0.24-0.02,0.31c-0.01,0.12-0.11,0.2-0.2,0.2h-3.11     c0.01,0.61,0.56,1.23,1.35,1.23c0.52,0,0.83-0.19,1.1-0.38c0.1-0.07,0.19-0.1,0.26,0.02l0.26,0.41c0.08,0.1,0.12,0.18-0.02,0.3     C39.29,38.72,38.7,39,37.95,39c-1.37,0-2.25-1.07-2.25-2.36C35.7,35.36,36.58,34.28,37.94,34.28z M39.03,36.14     c-0.02-0.55-0.45-1.03-1.11-1.03c-0.71,0-1.14,0.46-1.21,1.03H39.03z"/>
			<path class="st1" d="M32.42,34.59c0-0.11,0.1-0.22,0.21-0.22h0.23c0.09,0,0.18,0.07,0.2,0.16l0.13,0.41     c0.08-0.12,0.55-0.66,1.36-0.66c0.43,0,0.97,0.12,0.82,0.42l-0.23,0.49c-0.06,0.13-0.18,0.16-0.27,0.11     c-0.07-0.04-0.27-0.09-0.41-0.09c-0.66,0-1.02,0.53-1.06,0.61v2.86c0,0.2-0.13,0.21-0.31,0.21h-0.45c-0.12,0-0.21-0.1-0.21-0.21     L32.42,34.59L32.42,34.59z"/>
			<path class="st1" d="M28.97,34.28c0.58,0,1.03,0.2,1.13,0.24v-2.25c0-0.11,0.11-0.22,0.21-0.22h0.56c0.12,0,0.21,0.11,0.21,0.22     v6.41c0,0.12-0.1,0.21-0.21,0.21h-0.23c-0.11,0-0.18-0.08-0.2-0.2l-0.1-0.33c0,0-0.59,0.64-1.48,0.64     c-1.19,0-2.06-1.07-2.06-2.36C26.8,35.32,27.72,34.28,28.97,34.28z M28.99,38.07c0.69,0,1.07-0.54,1.12-0.66v-1.93     c0,0-0.45-0.26-1.03-0.26c-0.74,0-1.31,0.66-1.31,1.43C27.77,37.4,28.27,38.07,28.99,38.07z"/>
			<path class="st1" d="M24.7,32.27c0-0.11,0.1-0.22,0.21-0.22h0.55c0.11,0,0.21,0.11,0.21,0.22v6.41c0,0.12-0.11,0.21-0.21,0.21     h-0.55c-0.12,0-0.21-0.1-0.21-0.21V32.27z"/>
			<path class="st1" d="M22.2,32.76c0-0.37,0.28-0.66,0.64-0.66c0.37,0,0.66,0.29,0.66,0.66c0,0.36-0.29,0.66-0.66,0.66     C22.49,33.41,22.2,33.12,22.2,32.76z M22.36,34.59c0-0.11,0.1-0.22,0.21-0.22h0.55c0.11,0,0.21,0.11,0.21,0.22v4.08     c0,0.12-0.11,0.21-0.21,0.21h-0.55c-0.12,0-0.21-0.1-0.21-0.21V34.59z"/>
			<path class="st1" d="M16.99,32.27c0-0.11,0.1-0.22,0.21-0.22h0.55c0.11,0,0.21,0.11,0.21,0.22v2.48     c0.11-0.08,0.59-0.47,1.31-0.47c1.28,0,1.74,0.9,1.74,2.13v2.27c0,0.12-0.11,0.21-0.21,0.21h-0.55c-0.12,0-0.21-0.1-0.21-0.21     v-2.29c0-0.74-0.31-1.18-0.9-1.18c-0.69,0-1.08,0.46-1.18,0.66v2.81c0,0.13-0.09,0.21-0.22,0.21H17.2c-0.12,0-0.21-0.1-0.21-0.21     L16.99,32.27L16.99,32.27z"/>
			<path class="st1" d="M13.48,31.96c0.98,0,1.7,0.33,2.36,0.91c0.09,0.08,0.09,0.2,0.01,0.27l-0.43,0.44     c-0.07,0.09-0.16,0.09-0.24,0c-0.46-0.4-1.08-0.66-1.69-0.66c-1.39,0-2.45,1.17-2.45,2.54c0,1.37,1.06,2.53,2.46,2.53     c0.71,0,1.21-0.28,1.68-0.65c0.09-0.07,0.18-0.06,0.23-0.01l0.45,0.44c0.08,0.07,0.06,0.2-0.01,0.26     c-0.66,0.64-1.5,0.95-2.37,0.95c-1.95,0-3.52-1.55-3.52-3.51C9.96,33.53,11.53,31.96,13.48,31.96z"/>
		</g>
		<rect id="Horizontal_Bar_2_" x="24.84" y="26.68" class="st2" width="56.16" height="0.92"/>
		<g id="_x3C_Medicine_x3E__2_">
			<path class="st1" d="M77.2,15.9h3.71v0.92h-2.62v1.58h2.21v0.92h-2.21v1.82H81v0.92h-3.8V15.9z"/>
			<path class="st1" d="M68.52,15.9h1.12l1.92,3.47l0.63,1.31h0.04c-0.05-0.63-0.14-1.41-0.14-2.1V15.9h1.04v6.17h-1.12l-1.92-3.47     l-0.63-1.31h-0.04c0.05,0.65,0.14,1.4,0.14,2.08v2.7h-1.05L68.52,15.9L68.52,15.9z"/>
			<path class="st1" d="M63.37,15.9h1.09v6.17h-1.09V15.9z"/>
			<path class="st1" d="M57.97,15.78c0.74,0,1.36,0.37,1.75,0.78l-0.61,0.68c-0.31-0.31-0.66-0.51-1.13-0.51     c-1.02,0-1.73,0.85-1.73,2.23c0,1.4,0.66,2.25,1.69,2.25c0.55,0,0.94-0.23,1.29-0.61l0.61,0.67c-0.5,0.58-1.15,0.9-1.92,0.9     c-1.57,0-2.8-1.13-2.8-3.18C55.13,16.98,56.39,15.78,57.97,15.78z"/>
			<path class="st1" d="M50.3,15.9h1.09v6.17H50.3V15.9z"/>
			<path class="st1" d="M41.91,15.9h1.65c1.88,0,2.99,1.02,2.99,3.06c0,2.05-1.11,3.11-2.94,3.11h-1.7V15.9z M43.49,21.18     c1.24,0,1.95-0.71,1.95-2.23c0-1.51-0.71-2.17-1.95-2.17h-0.48v4.39L43.49,21.18L43.49,21.18z"/>
			<path class="st1" d="M34.35,15.9h3.71v0.92h-2.62v1.58h2.21v0.92h-2.21v1.82h2.71v0.92h-3.8L34.35,15.9L34.35,15.9z"/>
			<path class="st1" d="M24.84,15.9h1.2l1.11,3.04l0.4,1.17h0.04l0.4-1.17l1.09-3.04h1.2v6.17h-1.03v-2.82     c0-0.58,0.08-1.4,0.14-1.96h-0.04l-0.5,1.41l-1.06,2.8H27.3l-1.06-2.8l-0.49-1.41h-0.04c0.06,0.57,0.14,1.39,0.14,1.96v2.82     h-1.01V15.9z"/>
		</g>
		<g id="_x3C_Stanford_x3E__2_">
			<path class="st3" d="M78.59,12.77l-0.2-0.07v-0.62c-0.37,0.27-1.09,0.69-2.06,0.69c-2.03,0-3.34-1.41-3.34-3.59     c0-0.72,0.14-1.41,0.4-1.99c0.62-1.34,1.91-2.11,3.52-2.11c0.59,0,1.13,0.07,1.44,0.14V3.64c0-0.92-0.01-1.41-0.14-1.61     c-0.15-0.22-0.47-0.24-0.65-0.25c-0.02,0-0.04,0-0.06,0l-0.14-0.01l0.03-0.33h0.16c0.04,0,0.89-0.07,1.58-0.21     c0.29-0.05,0.58-0.11,0.73-0.17l0.07-0.03l0.13,0.08l-0.01,0.07c-0.05,0.61-0.06,1.91-0.06,2.89v6.03c0,0.9,0.01,1.46,0.14,1.64     c0.15,0.22,0.47,0.26,0.65,0.27c0.02,0,0.05,0,0.06,0L81,12.02v0.4h-0.16c-0.17,0-0.81,0.05-1.44,0.15     c-0.36,0.06-0.62,0.11-0.75,0.17L78.59,12.77z M76.88,5.96c-1.44,0-2.14,0.99-2.14,3.02c0,0.82,0.23,2.74,2.38,2.74h0.07     c0.26,0,0.75-0.04,1.17-0.3V6.46C78.24,6.34,77.79,5.96,76.88,5.96z"/>
			<path class="st3" d="M66.97,12.67V12.3l0.14-0.01c0.12-0.01,0.44-0.06,0.66-0.31c0.23-0.26,0.24-0.86,0.24-2.13V7.73     c0-0.91-0.01-1.3-0.14-1.5c-0.15-0.22-0.48-0.24-0.66-0.25c-0.02,0-0.04,0-0.06,0L67,5.96V5.51l0.16,0c0.03,0,0.08,0,0.12,0     c0.23,0,0.77-0.03,1.33-0.14c0.36-0.06,0.67-0.15,0.79-0.21l0.08-0.04l0.13,0.07v0.64c0.35-0.33,0.92-0.69,1.71-0.69     c0.52,0,0.93,0.14,1.24,0.41l0.05,0.05v0.23L72,6.99h-0.3l-0.05-0.07c-0.17-0.27-0.52-0.6-1.19-0.6c-0.31,0-0.57,0.08-0.81,0.24     v3.73c0,0.98,0.03,1.44,0.16,1.63c0.21,0.31,0.83,0.33,1.02,0.33h0.16v0.41l-0.16-0.01c-0.81-0.04-1.42-0.06-1.86-0.06     c-0.55,0-1.17,0-1.83,0.06L66.97,12.67z"/>
			<path class="st3" d="M62.5,12.79c-2.26,0-3.6-1.41-3.6-3.77c0-1.83,0.98-3.97,3.76-3.97c2.26,0,3.6,1.41,3.6,3.77     C66.26,10.66,65.27,12.79,62.5,12.79z M62.59,5.92c-0.44,0-0.79,0.11-1.05,0.34c-0.59,0.5-0.9,1.41-0.9,2.7     c0,0.5,0.09,2.99,1.91,2.99c0.43,0,0.79-0.11,1.05-0.34c0.59-0.5,0.89-1.41,0.89-2.7C64.5,8.41,64.41,5.92,62.59,5.92z"/>
			<path class="st3" d="M54,12.67v-0.36l0.14-0.01c0.12-0.01,0.44-0.06,0.66-0.3c0.23-0.26,0.24-0.88,0.24-2.14V6.18h-0.96V5.77     l0.1-0.04c0.42-0.17,0.68-0.31,0.87-0.46c0-0.66,0.02-1.5,0.11-1.96C55.44,1.78,56.44,1,58.11,1c0.72,0,1.4,0.24,1.8,0.56     l0.06,0.05L60,1.77l-0.73,1.02l-0.18,0L59.05,2.7c-0.28-0.63-0.69-0.87-1.24-0.87c-0.23,0-0.55,0.07-0.74,0.27     c-0.32,0.32-0.37,0.8-0.37,1.74v1.43h1.65v0.92h-1.65v4.11c0,0.98,0.03,1.45,0.16,1.64c0.21,0.31,0.84,0.33,1.02,0.33h0.16v0.39     l-0.16-0.01c-0.81-0.04-1.42-0.06-1.86-0.06c-0.55,0-1.17,0-1.83,0.06L54,12.67z"/>
			<path class="st3" d="M44.78,12.67v-0.35l0.14-0.01c0.12-0.01,0.44-0.06,0.66-0.31c0.23-0.26,0.24-0.89,0.24-2.15V7.74     c0-0.91-0.01-1.3-0.15-1.5C45.52,6.02,45.19,6,45.01,5.98c-0.02,0-0.04,0-0.06,0l-0.14-0.01V5.54l0.17,0.01c0.03,0,0.07,0,0.11,0     c0.23,0,0.77-0.03,1.34-0.14c0.44-0.07,0.69-0.22,0.78-0.26l0.08-0.04l0.15,0.09v0.59c0.37-0.28,1.12-0.71,2.14-0.71     c1.33,0,2.2,0.62,2.45,1.76c0.07,0.28,0.1,0.96,0.1,1.32v2.16c0,1.22,0.05,1.57,0.28,1.78c0.12,0.1,0.36,0.19,0.57,0.21     l0.15,0.01v0.35l-0.37-0.02c-0.53-0.03-0.99-0.05-1.47-0.05c-0.55,0-1.02,0-1.68,0.06l-0.17,0.02v-0.34l0.13-0.02     c0.29-0.04,0.49-0.12,0.61-0.25c0.24-0.24,0.25-0.81,0.27-1.3c0-0.08,0.01-0.17,0.01-0.26c0.01-0.28,0.01-0.86,0.01-1.28     c0-0.55,0-1.13-0.06-1.69c-0.11-0.96-0.61-1.4-1.57-1.4c-0.66,0-1.07,0.15-1.38,0.31v3.89c0,1.22,0.05,1.57,0.28,1.78     c0.12,0.1,0.36,0.19,0.57,0.21l0.14,0.01v0.35l-0.39-0.02c-0.51-0.03-0.96-0.05-1.42-0.05c-0.53,0-1.03,0-1.7,0.06L44.78,12.67z"/>
			<path class="st3" d="M39.63,12.74c-2,0-2.16-1.52-2.16-1.99c0-0.55,0.15-1.52,1.42-1.99c1.32-0.48,1.6-0.54,2.51-0.83V7.69     c0-0.44,0-0.55-0.09-0.82c-0.18-0.52-0.68-0.85-1.36-0.85c-1,0-1.41,0.76-1.41,0.77l-0.08,0.15l-0.37-0.22l0.04-0.11     c0.18-0.58,0.91-1.56,2.49-1.56c1.03,0,1.7,0.29,2.12,0.93c0.31,0.5,0.33,1.2,0.33,1.92c0,0.64-0.01,1.35-0.03,1.92     c-0.01,0.39-0.02,0.73-0.02,0.94c0,0.52,0.08,0.93,0.52,0.93c0.11,0,0.18-0.02,0.24-0.07l0.12-0.1l0.24,0.28l-0.08,0.1     c-0.4,0.48-0.78,0.83-1.46,0.83c-0.59,0-1-0.28-1.13-0.75C41.15,12.31,40.56,12.74,39.63,12.74z M41.4,8.84     c-0.98,0.3-1.32,0.46-1.62,0.62c-0.42,0.21-0.64,0.65-0.64,1.16c0,0.4,0.14,1.07,1.1,1.07c0.32,0,0.77-0.06,1.16-0.34V8.84z"/>
			<path class="st3" d="M34.73,12.76c-1.14,0-1.78-0.41-2.06-1.32c-0.12-0.36-0.12-1.08-0.12-1.51c0-1.18,0.01-2.13,0.02-3.23     l0.01-0.52h-0.98V5.89l0.09-0.04c0.46-0.19,0.63-0.32,0.83-0.47c0.71-0.55,1.2-1.49,1.21-1.5l0.17-0.28h0.32v1.66h2.52v0.92     h-2.52v3.89c0,1.16,0.22,1.82,1.31,1.82c0.51,0,0.9-0.2,0.9-0.2l0.15-0.08l0.13,0.3l-0.06,0.07     C36.64,12.02,36.07,12.76,34.73,12.76z"/>
			<path class="st3" d="M27.39,12.72c-0.96,0-1.69-0.1-2.44-0.35l-0.11-0.04v-0.54c0-0.72-0.01-1-0.03-1.23l-0.02-0.37l0.44,0     l0.01,0.16c0.02,0.33,0.13,0.66,0.33,0.89c0.31,0.36,1.04,0.57,1.71,0.57c1.41,0,2.06-0.54,2.06-1.68c0-0.98-0.61-1.39-1.44-1.96     l-0.13-0.09l-0.88-0.59c-1.23-0.82-1.85-1.47-1.85-2.78c0-0.64,0.24-2.72,3.34-2.72c1.27,0,2.25,0.17,2.29,0.17l0.13,0.02l0,0.13     c0,0-0.01,0.41-0.01,0.85c0,0.35-0.01,0.65,0.01,0.96l0.01,0.23h-0.38l-0.01-0.15c-0.03-0.39-0.14-0.68-0.36-0.9     c-0.3-0.3-0.96-0.44-1.66-0.44c-1.64,0-1.83,0.85-1.83,1.48c0,0.87,0.45,1.17,1.42,1.81l1.12,0.74c0.95,0.64,1.85,1.24,1.85,2.82     C30.96,12.42,28.46,12.72,27.39,12.72z"/>
		</g>
		<g id="SMCH_Mark_2_">
			<path id="Shield_2_" class="st3" d="M16.3,18.38c2.82-3.49,3.58-7.53,3.58-10.75c0-2.78-0.57-4.94-0.86-5.63H3.07     C2.78,2.68,2.21,4.85,2.21,7.63c0,1.31,0.12,2.75,0.46,4.24c-0.84,0.08-1.12,0.23-1.2,0.82c-0.05,0.34,0.06,0.78,0.79,0.95     c0.34,0.05,0.66,0.1,0.97,0.14c1.15,3.25,3.46,6.52,7.82,8.91c1.47-0.81,2.71-1.72,3.75-2.69c0.42,0.48,0.85,0.99,1.29,1.54     c0.65,0.57,1.22,0.72,1.65,0.71c0.53-0.01,0.72-0.47,0.55-0.74C17.86,20.84,17.06,19.57,16.3,18.38z"/>
			<path id="Legs_2_" class="st4" d="M18.66,21.29c-0.11-0.18-2.8-4.46-3.81-5.97c-1.97-2.92-4.05-3.21-6.41-3.72     c-1.19-0.14-3.62-0.31-5.27-0.46c-1.46,0.1-1.98,0.61-2.17,1.58c4.31,0.62,7.33,1.34,10.11,3.19c1.71,1.14,3.32,2.7,5.07,4.93     C17.61,22.12,18.66,21.29,18.66,21.29z"/>
			<path id="Arms_2_" class="st4" d="M4.93,7.73c0,0,0.57-0.79,1.7-0.51c2.42,1.05,4.14,1.71,5.46,1.81     c1.48-0.26,2.44-1.12,3.72-3.52c0,0,0.97,0.66,0.44,1.97c-0.95,2.38-2.16,3.47-3.54,3.91c-0.57,0.18-1.94-0.16-3.07-0.6     C8.32,10.06,6.72,9.19,4.93,7.73z"/>
			<path id="Head_2_" class="st4" d="M13.69,6.23c-0.09,1.21-1.13,1.96-2.33,1.87C10.16,8,9.47,7.01,9.34,5.9     c0.09-1.21,1.13-1.79,2.33-1.7C12.87,4.49,13.67,5.02,13.69,6.23z"/>
		</g>
	</g>
</g>
<g>
</g>
<g>
</g>
<g>
</g>
<g>
</g>
<g>
</g>
<g>
</g>
<g>
</g>
<g>
</g>
<g>
</g>
<g>
</g>
<g>
</g>
<g>
</g>
<g>
</g>
<g>
</g>
<g>
</g>
</svg>