<?xml version="1.0" encoding="utf-8"?>
<!DOCTYPE svg PUBLIC "-//W3C//DTD SVG 1.1//EN" "http://www.w3.org/Graphics/SVG/1.1/DTD/svg11.dtd">
<svg version="1.1" xmlns="http://www.w3.org/2000/svg" x="0px" y="0px"
	 width="170px" height="45px" viewBox="-33.625 -7.5 170 45">
<g>
	<path fill="#8C191C" d="M-22.61,11.697h16.031V-4.981h-14.902C-22.237-3.216-23.942,3.742-22.61,11.697z"/>
	<path fill="#8C191C" d="M8.711-4.981H-6.183V32.07v1.918c1.107-0.605,2.133-1.273,3.098-1.918
		C14.851,19.662,10.138-1.684,8.711-4.981z"/>
	<path fill="#8C191C" d="M-9.679,32.07c0.971,0.645,1.998,1.312,3.1,1.918V32.07V12.107h-15.96
		C-21.328,18.906-17.854,26.428-9.679,32.07z"/>
</g>
<path fill="#FFFFFF" d="M-6.579-4.981v16.678H-22.61c0.021,0.136,0.042,0.274,0.071,0.41h15.96V32.07v1.918
	c0.068,0.025,0.132,0.053,0.199,0.123c0.069-0.07,0.131-0.098,0.197-0.123V32.07V-4.981H-6.579z"/>
<path fill="#FFFFFF" d="M-14.637-1.913l0.011,0.453c0.313-0.24,0.763-0.444,1.123-0.518c-0.201,0.888-0.64,1.125-1.118,1.212
	l-0.02,0.745c0.399-0.307,0.984-0.733,1.432-0.819c-0.259,1.123-0.802,1.542-1.411,1.624v0.737c0.483-0.307,1.253-0.866,1.812-0.952
	c-0.32,1.155-1.039,1.604-1.808,1.677l0.003,0.696c0.48-0.331,1.246-0.803,1.8-0.911c-0.307,1.13-1.056,1.798-1.798,1.892v0.578
	c0.482-0.304,1.244-0.802,1.798-0.886c-0.295,1.165-1.035,1.803-1.808,1.871V5.95c0.585-0.351,1.543-0.947,2.212-1.037
	c-0.383,1.247-1.293,1.92-2.212,2v0.552c0.314-0.263,0.971-0.517,1.333-0.587c-0.195,0.833-0.876,1.15-1.335,1.25l-0.002,1.013
	c0.11-0.002,0.208-0.015,0.324-0.023c-0.033-0.355,0.17-0.716,0.629-1.006c0.02,0.252-0.131,0.658-0.223,0.908
	c0.249-0.038,0.488-0.108,0.734-0.224c-0.13-0.51,0.038-1.196,0.623-1.791c0.117,0.39,0.006,1.037-0.04,1.467
	c0.255-0.153,0.521-0.341,0.767-0.559c-0.283-0.493-0.227-1.238,0.318-1.985c0.165,0.369,0.17,1.089,0.176,1.521
	c0.222-0.253,0.458-0.503,0.671-0.792c-0.381-0.484-0.394-0.932,0.066-1.859c0.157,0.39,0.301,0.934,0.308,1.369
	c0.203-0.246,0.344-0.46,0.51-0.787c-0.097-0.232-0.049-0.4,0.068-0.555c0.177-0.212,0.428-0.405,0.654-0.265
	c0.325,0.146,0.157,0.5,0.053,0.744c-0.081,0.192-0.216,0.32-0.451,0.295c-0.171,0.29-0.401,0.625-0.597,0.867
	c0.465,0.146,0.788,0.267,1.106,0.577c-0.691,0.285-1.092,0.216-1.434-0.07c-0.221,0.291-0.546,0.625-0.781,0.859
	c0.456,0.141,0.753,0.273,1.122,0.643c-0.753,0.303-1.301,0.215-1.636-0.142c-0.253,0.22-0.509,0.447-0.769,0.601
	c0.442,0.222,0.758,0.479,1.027,0.843c-0.851,0.18-1.414-0.054-1.658-0.542c-0.255,0.115-0.492,0.198-0.741,0.254
	c0.239,0.211,0.399,0.367,0.527,0.644c-0.582-0.033-0.915-0.172-1.004-0.508c-0.11,0.008-0.232,0.084-0.348,0.083v1.123
	l-0.712-0.309V9.701c-0.074-0.03-0.249-0.069-0.319-0.1c-0.1,0.346-0.359,0.484-0.911,0.49c0.114-0.281,0.182-0.46,0.464-0.605
	c-0.25-0.068-0.5-0.2-0.75-0.327c-0.221,0.546-0.726,0.766-1.618,0.557c0.259-0.367,0.595-0.708,1.042-0.857
	c-0.228-0.146-0.441-0.287-0.665-0.505c-0.332,0.366-0.886,0.498-1.65,0.188c0.312-0.332,0.625-0.574,1.096-0.658
	c-0.236-0.254-0.456-0.542-0.682-0.831c-0.342,0.304-0.855,0.409-1.554,0.116c0.316-0.332,0.674-0.653,1.12-0.651
	c-0.137-0.204-0.263-0.425-0.405-0.65c-0.148-0.002-0.275,0-0.43-0.201c-0.164-0.21-0.319-0.661-0.041-0.805
	c0.167-0.148,0.562,0.069,0.69,0.301c0.125,0.218,0.077,0.352,0.038,0.503c0.141,0.217,0.295,0.436,0.437,0.637
	c-0.097-0.636,0.083-1.152,0.242-1.52c0.563,0.787,0.455,1.454,0.145,1.945c0.231,0.289,0.431,0.505,0.66,0.734
	c-0.066-0.438-0.01-1.099,0.149-1.471c0.526,0.705,0.597,1.462,0.355,1.933c0.219,0.195,0.431,0.362,0.647,0.501
	c-0.125-0.396-0.17-1.095-0.065-1.481c0.591,0.595,0.777,1.267,0.641,1.78c0.245,0.126,0.498,0.215,0.744,0.279
	c-0.118-0.237-0.232-0.662-0.215-0.936c0.444,0.286,0.56,0.625,0.546,0.978c0.069,0.005,0.251,0.087,0.321,0.087l-0.013-1.004
	c-0.438-0.099-1.097-0.364-1.313-1.217c0.41,0.111,0.936,0.203,1.313,0.547V6.937c-0.884-0.071-1.778-0.708-2.221-1.955
	c0.771,0.135,1.509,0.501,2.221,0.955V5.48c-0.777-0.058-1.508-0.779-1.828-1.797c0.639,0.125,1.236,0.401,1.827,0.821V3.922
	c-0.722-0.078-1.467-0.683-1.827-1.823c0.639,0.129,1.236,0.408,1.827,0.811V2.259c-0.747-0.036-1.455-0.46-1.827-1.623
	c0.639,0.128,1.236,0.45,1.827,0.878V0.785c-0.587-0.068-1.148-0.432-1.442-1.58c0.512,0.125,0.964,0.345,1.442,0.772v-0.747
	c-0.449-0.098-0.873-0.271-1.098-1.151c0.308,0.072,0.678,0.083,1.102,0.454l-0.009-0.446c-0.345-0.512-0.269-0.734-0.223-1.149
	c0.032-0.367,0.171-0.645,0.569-0.658c0.396,0.016,0.531,0.291,0.571,0.658C-14.364-2.647-14.29-2.425-14.637-1.913"/>
<path fill="#A61D38" d="M-1.125,1.009C-1.056,1.057-0.979,1.054-0.958,1c0.032-0.055-0.01-0.127-0.081-0.151
	C-1.108,0.8-1.186,0.804-1.204,0.86C-1.227,0.915-1.196,0.985-1.125,1.009"/>
<path fill="#A61D38" d="M-0.759,0.218c0.061,0.061,0.136,0.069,0.165,0.042c0.045-0.049,0.028-0.123-0.03-0.165
	c-0.065-0.055-0.138-0.063-0.171-0.035C-0.834,0.107-0.822,0.183-0.759,0.218"/>
<path fill="#FFFFFF" d="M2.088,7.315C2.333,4.483,2.761,3.692,3.47,3.103l0.063-0.056L3.264,1.305l-0.129,0.04
	C2.748,1.399,2.398,1.772,2.16,2.087L2.158,0.435l-1.912-1.12l0.002,0.967C0.04,0.072-0.158-0.085-0.231-0.145
	c-0.217-0.154-0.401-0.227-0.6-0.227c-0.113,0-0.215,0.04-0.302,0.054c-0.15,0.027-0.263,0.074-0.482-0.018
	c-0.962-0.2-1.705,0.016-2.124,0.598C-4.122,0.798-4.187,1.651-3.897,2.46c0.232,0.658,0.671,1.325,1.006,1.792
	C-2.709,4.5-1.03,6.286-0.634,6.673c0.281,0.286,0.582,0.57,0.887,0.852v0.744l-0.491-0.34l-0.472,1.125l0.097,0.067
	c0.429,0.25,0.852,0.951,1.139,4.533c-1.047,0.376-2.442,1.618-2.475,2.913c-0.024,0.592,0.258,1.436,1.727,2.01
	c0.32,0.129,0.665,0.268,0.999,0.408c0.02,0.631,0.04,1.342,0.054,2.082c-0.27,0.113-0.87,0.424-0.98,0.893
	c-0.09,0.404,0.156,0.752,0.704,1.133c0.097,0.041,0.204,0.113,0.298,0.133c0.003,0.176,0.004,0.359,0.007,0.584
	c-0.315,0.15-0.438,0.199-0.626,0.445c-0.108,0.123-0.195,0.205-0.139,0.328c0.012,0.021,0.053,0.115,0.166,0.115
	c0.076,0,0.191-0.021,0.392-0.129c0.118-0.031,0.191-0.045,0.25-0.053c0.083,0.191,0.28,0.33,0.498,0.33
	c0.233,0,0.424-0.156,0.472-0.43c0-0.104,0-0.152-0.001-0.252c0.27-0.088,0.432-0.338,0.44-0.629
	c0.019-0.318-0.159-0.676-0.447-0.869c-0.001-0.283-0.002-0.561-0.004-0.84c0.975-0.182,2.015-0.795,2.106-1.648
	c0.061-0.531-0.216-1.268-1.825-1.896c-0.103-0.027-0.199-0.1-0.29-0.125c-0.001-1.32,0.001-2.51,0.007-3.622
	c1.736-0.869,2.91-1.673,3.061-2.758C5.07,10.662,4.134,9.338,2.088,7.315z M-0.843,0.001C-0.8-0.037-0.671-0.035-0.584,0.043
	c0.047,0.028,0.076,0.092,0.082,0.151C-0.5,0.228-0.518,0.273-0.541,0.292c-0.023,0.042-0.067,0.053-0.104,0.053
	c-0.057,0-0.117-0.019-0.168-0.07C-0.852,0.224-0.889,0.181-0.89,0.119C-0.89,0.068-0.871,0.043-0.843,0.001z M-1.269,0.838
	c0.047-0.078,0.159-0.114,0.27-0.055c0.098,0.061,0.149,0.154,0.105,0.236C-0.916,1.078-0.973,1.104-1.04,1.104
	c-0.032,0-0.079-0.016-0.114-0.029c-0.06-0.021-0.108-0.08-0.122-0.14C-1.283,0.909-1.282,0.86-1.269,0.838z M-0.327,5.051
	c-2.616-2.378-2.725-3.462-2.556-3.896C-2.731,0.769-2.278,0.65-2.024,0.65c0.064,0,0.109,0.006,0.143,0.022
	c0.083,0.024,0.085,0.035,0.108,0.131c0.046,0.181,0.107,0.423,0.607,0.595c0.62,0.196,1.078,0.317,1.416,0.328l0.003,3.851
	C0.051,5.386-0.119,5.225-0.327,5.051z M2.796,20.225c-0.003,0.123-0.147,0.365-0.939,0.578c-0.001-0.457-0.002-0.908-0.003-1.348
	C2.409,19.738,2.803,20.02,2.796,20.225z M1.879,0.612v1.129L1.192,1.57L0.875,1.415c0.04-0.248-0.126-0.545-0.352-0.819v-0.809
	L1.879,0.612z M-0.623,16.594c-0.046-0.326,0.341-0.771,1.247-1.465c0.048,0.739,0.08,1.592,0.119,2.563
	C-0.047,17.301-0.58,16.973-0.623,16.594z M1.061,19.068c0.184,0.098,0.354,0.15,0.515,0.248c0.001,0.488,0.002,1.031,0.004,1.588
	l-0.004,0.002v1.004l0.01-0.002c0,0.186,0.001,0.365,0.002,0.598c-0.135-0.086-0.394-0.24-0.462-0.43
	C1.11,20.967,1.082,20.014,1.061,19.068z M1.402,24.562c-0.085,0-0.196-0.031-0.254-0.162l-0.002-0.025
	c-0.003-0.389-0.005-0.723-0.008-1.1c0.29,0.092,0.454,0.131,0.449,0.533v0.48l0.022-0.002c0,0.021,0,0.09,0,0.111
	C1.568,24.555,1.434,24.562,1.402,24.562z M1.571,18.033c-0.192-0.053-0.373-0.154-0.546-0.207
	c-0.266-7.702-0.859-8.533-1.387-8.891l0.253-0.582l0.644,0.436L0.533,7.767C0.646,7.886,0.767,7.983,0.889,8.1
	c0.282,0.243,0.553,0.483,0.823,0.744C1.613,10.96,1.567,13.887,1.571,18.033z M1.837,7.053C1.434,6.675,0.996,6.255,0.532,5.819
	L0.527,1.718c0.09-0.012,0.156-0.06,0.209-0.091l0.314,0.154l0.413,0.654l0.121-0.049L1.562,1.963l0.32-0.069v0.683l0.266,0.042
	C2.291,2.333,2.669,1.808,3.036,1.65l0.202,1.298C2.516,3.557,2.077,4.357,1.837,7.053z M1.87,13.083
	c0.028-1.59,0.061-2.9,0.114-3.998c0.936,0.914,1.621,1.744,1.493,2.517C3.389,12.141,2.854,12.636,1.87,13.083z"/>
<path fill="#FFFFFF" d="M-10.555,18.574l-0.003-3.58h-6.301v6.335h1.944v3.535h6.305v-6.291H-10.555z M-12.417,15.818h1.033v2.633
	h-1.033V15.818z M-11.363,21.33v0.781h-0.803V21.33H-11.363z M-15.914,15.818h2.635v1.031h-2.635V15.818z M-14.916,20.506h-1.035
	v-2.631h1.035V20.506z M-14.111,17.75h0.8v0.824h-0.8V17.75z M-14.022,19.48h2.637v1.025h-2.637V19.48z M-12.968,23.963h-1.029
	V21.33h1.029V23.963z M-9.555,23.943h-2.636v-1.027h2.635L-9.555,23.943L-9.555,23.943z M-9.519,22.092h-1.041v-2.633h1.039v2.633
	H-9.519z"/>
</svg>
