<svg xmlns="http://www.w3.org/2000/svg" height="35.747" width="253.76" xml:space="preserve"><path style="fill:#2e2d2d;fill-opacity:1;fill-rule:nonzero;stroke:none" d="M1103.65 185.563h19.2l17.7-48.301 6.44-18.602h.61l6.3 18.602 17.4 48.301h19.2V87.469h-16.36v44.844c0 9.152 1.36 22.195 2.26 31.199h-.61l-7.95-22.352-16.94-44.543h-8.11l-16.94 44.543-7.8 22.352h-.6c.9-9.004 2.25-22.047 2.25-31.199V87.469h-16.05v98.094M1241.74 185.563h59.1v-14.696h-41.7v-25.051h35.25v-14.707h-35.25v-28.945h43.2V87.469h-60.6v98.094M1373.16 101.57c19.79 0 31.04 11.239 31.04 35.391 0 24.004-11.25 34.5-31.04 34.5h-7.66V101.57zm-25.05 83.993h26.24c30 0 47.7-16.2 47.7-48.602 0-32.551-17.7-49.492-46.79-49.492h-27.15v98.094M1468.51 185.563h17.4V87.469h-17.4v98.094M1577.43 187.359c11.86 0 21.75-5.847 27.9-12.449l-9.74-10.801c-4.95 4.95-10.5 8.106-18 8.106-16.2 0-27.6-13.504-27.6-35.547 0-22.355 10.5-35.852 26.99-35.852 8.71 0 15 3.594 20.56 9.747l9.75-10.641c-7.95-9.152-18.3-14.262-30.6-14.262-25.05 0-44.55 18.012-44.55 50.559 0 32.09 20.1 51.14 45.29 51.14M1649.49 185.563h17.41V87.469h-17.41v98.094M1717.86 185.563h17.85l30.6-55.196 10.05-20.847h.6c-.75 10.046-2.25 22.488-2.25 33.445v42.598h16.65V87.469h-17.85l-30.6 55.195-10.05 20.848h-.59c.74-10.352 2.24-22.196 2.24-33.145V87.469h-16.65v98.094M1842.61 185.563h59.09v-14.696H1860v-25.051h35.26v-14.707H1860v-28.945h43.21V87.469h-60.6v98.094" transform="matrix(.13333 0 0 -.13333 0 35.747)"/><path style="fill:#211d1d;fill-opacity:1;fill-rule:nonzero;stroke:none" d="M1048.28 85.535v182.606M1051.28 85.535h-5.99v182.606h5.99V85.535" transform="matrix(.13333 0 0 -.13333 0 35.747)"/><path style="fill:#8a191d;fill-opacity:1;fill-rule:nonzero;stroke:none" d="M500.465 135.063c-12.547-3.778-16.805-5.872-20.692-7.833-5.402-2.742-8.214-8.281-8.214-14.8 0-5.098 1.816-13.645 14.054-13.645 4.043 0 9.821.742 14.852 4.356zm-22.578-49.547c-25.528 0-27.5 19.382-27.5 25.332 0 6.996 1.875 19.351 18.144 25.336 16.789 6.171 20.383 6.886 31.934 10.511v2.996c0 5.59 0 6.961-1.113 10.422-2.227 6.668-8.614 10.84-17.274 10.84-12.746 0-17.969-9.719-18.008-9.816l-1.015-1.907-4.727 2.809.469 1.453c2.305 7.332 11.551 19.785 31.766 19.785 13.136 0 21.691-3.722 26.992-11.777 3.945-6.387 4.258-15.215 4.258-24.437 0-8.11-.196-17.137-.372-24.422-.117-5-.214-9.344-.214-11.981 0-6.656 1.054-11.816 6.601-11.816 1.379 0 2.317.293 3.078.937l1.524 1.289 3.105-3.535-1.035-1.324c-5.098-6.156-9.953-10.492-18.605-10.492-7.489 0-12.676 3.554-14.434 9.535-4.16-4.34-11.727-9.738-23.574-9.738M321.91 85.758c-12.215 0-21.523 1.34-31.074 4.457l-1.375.445v6.848c0 9.109-.195 12.695-.391 15.594l-.273 4.742 5.555-.016.117-1.976c.234-4.254 1.66-8.43 4.258-11.364 4.003-4.527 13.234-7.265 21.796-7.265 17.961 0 26.309 6.797 26.309 21.394 0 12.5-7.723 17.696-18.387 24.903l-1.711 1.171-11.269 7.5c-15.664 10.379-23.633 18.684-23.633 35.293 0 8.125 3.066 34.629 42.551 34.629 16.199 0 28.691-2.129 29.219-2.207l1.699-.304-.059-1.668c0-.051-.137-5.196-.137-10.782 0-4.402-.078-8.222.079-12.179l.156-2.95h-4.785l-.117 1.84c-.352 5.028-1.817 8.625-4.571 11.387-3.801 3.816-12.199 5.594-21.094 5.594-20.918 0-23.359-10.77-23.359-18.821 0-11.109 5.691-14.867 18.125-23.074l14.266-9.461c12.16-8.097 23.613-15.754 23.613-35.918 0-34.12-31.824-37.812-45.508-37.812M415.445 85.164c-14.57 0-22.636 5.203-26.218 16.824-1.485 4.629-1.485 13.746-1.485 19.207 0 15.043.137 27.129.293 41.114l.078 6.554H375.68v3.707l1.211.5c5.793 2.387 8 4.024 10.558 5.996 9.051 7.016 15.34 18.879 15.438 19.055l2.125 3.602h4.097v-21.172h32.079v-11.688h-32.079V119.41c0-14.765 2.754-23.2 16.746-23.2 6.497 0 11.497 2.517 11.536 2.556l1.933.996 1.649-3.828-.809-.918c-.332-.372-7.598-9.852-24.719-9.852M543.57 86.344v4.472l1.817.137c1.582.137 5.566.762 8.351 3.906 2.91 3.243 3.086 11.282 3.086 27.332v26.914c0 11.583-.176 16.543-1.855 19.055-1.926 2.781-6.184 3.074-8.449 3.238-.293.004-.547.051-.782.055l-1.797.192v5.382l2.129-.164c.371-.043.84-.043 1.446-.043 2.918 0 9.777.383 17.023 1.797 5.535.871 8.758 2.785 9.93 3.332l1.074.5 1.855-1.097v-7.489c4.758 3.532 14.317 9.055 27.297 9.055 16.989 0 28.067-7.934 31.231-22.332.898-3.57 1.23-12.234 1.23-16.852v-27.488c0-15.547.606-19.91 3.524-22.637 1.465-1.347 4.57-2.46 7.285-2.636l1.855-.133V86.44l-4.668.247c-6.765.34-12.586.652-18.691.652-6.953 0-12.977 0-21.375-.781l-2.18-.215v4.355l1.692.235c3.652.57 6.191 1.601 7.812 3.214 3.055 3.055 3.211 10.293 3.445 16.551.04 1.035.079 2.129.137 3.266.176 3.519.176 10.922.176 16.324 0 7.059 0 14.34-.77 21.535-1.406 12.18-7.753 17.84-19.992 17.84-8.406 0-13.66-1.922-17.636-3.965v-49.453c0-15.547.636-19.91 3.546-22.637 1.485-1.347 4.551-2.46 7.286-2.636l1.843-.133V86.44l-5.007.254c-6.524.344-12.18.645-18.118.645-6.804 0-13.191 0-21.621-.781l-2.129-.215M661.023 86.344v4.57l1.836.137c1.602.12 5.594.746 8.368 3.879 2.929 3.25 3.066 11.211 3.066 27.261v46.672H662.02v5.289l1.23.512c5.34 2.199 8.621 3.953 11.043 5.832.02 8.356.273 19.117 1.406 24.977 3.723 19.433 16.426 29.297 37.785 29.297 9.168 0 17.911-3.063 22.989-7.184l.722-.586.293-2.004-9.347-12.98-2.246-.028-.508 1.172c-3.574 7.996-8.77 11.121-15.867 11.121-2.95 0-6.985-.879-9.485-3.39-4.082-4.067-4.765-10.125-4.765-22.145v-18.195h20.976v-11.688H695.27v-52.218c0-12.438.41-18.493 2.031-20.926 2.637-3.965 10.637-4.266 13-4.266h1.992v-5.012l-2.09.118c-10.363.539-18.078.78-23.652.78-6.992 0-14.934 0-23.36-.78l-2.168-.215M770.523 172.242c-5.554 0-10.046-1.429-13.328-4.269-7.57-6.34-11.398-17.899-11.398-34.313 0-6.344 1.172-38.02 24.355-38.02 5.528 0 10.032 1.458 13.352 4.282 7.547 6.336 11.375 17.894 11.375 34.32 0 6.344-1.172 38-24.356 38zm-1.191-87.48c-28.73 0-45.898 17.91-45.898 47.89 0 23.289 12.531 50.469 47.89 50.469 28.75 0 45.918-17.902 45.918-47.879 0-23.293-12.547-50.48-47.91-50.48M826.324 86.344v4.765l1.836.157c1.594.097 5.617.722 8.371 3.886 2.93 3.243 3.047 10.989 3.047 27.039v26.914c0 11.583-.156 16.543-1.816 19.055-1.934 2.781-6.172 3.074-8.457 3.238-.274.004-.547.051-.742.055l-1.829.192v5.703l2.024-.039c.351-.032.957-.039 1.543-.039 2.929 0 9.785.355 17.019 1.769 4.571.77 8.508 1.941 10.09 2.691l1.094.489 1.66-.867v-8.192c4.512 4.266 11.668 8.778 21.777 8.778 6.582 0 11.903-1.758 15.77-5.247l.644-.593v-2.977l-7.921-14.523h-3.825l-.586.918c-2.207 3.457-6.621 7.578-15.168 7.578-3.906 0-7.292-.977-10.281-2.989v-47.46c0-12.438.41-18.305 2.031-20.73 2.665-3.946 10.633-4.259 12.997-4.259h1.972v-5.215l-2.07.118c-10.359.539-18.094.78-23.652.78-6.993 0-14.93 0-23.348-.78l-2.18-.215M952.633 171.645c-18.348 0-27.305-12.567-27.305-38.395 0-10.469 2.969-34.816 30.305-34.816h.879c3.32 0 9.519.488 14.929 3.839v63.071c-1.543 1.519-7.253 6.301-18.808 6.301zm21.738-86.61-2.519.844v7.926c-4.668-3.457-13.934-8.828-26.309-8.828-25.859 0-42.578 17.929-42.578 45.711 0 9.207 1.808 17.968 5.148 25.343 7.879 17.09 24.278 26.887 44.93 26.887 7.57 0 14.355-.934 18.398-1.801v20.02c0 11.73-.156 17.98-1.836 20.515-1.914 2.746-6.042 3.051-8.269 3.219-.293.016-.547.035-.762.063l-1.777.175.41 4.223h1.992c.449 0 11.336.906 20.176 2.645 3.711.597 7.383 1.429 9.305 2.136l.937.348 1.621-.969-.078-.918c-.625-7.758-.722-24.347-.722-36.785v-76.773c0-11.481.156-18.578 1.816-20.864 1.953-2.804 6.056-3.273 8.286-3.449.29-.008.56-.02.78-.058l1.76-.067V89.52h-1.96c-2.11 0-10.331-.579-18.288-1.946-4.57-.738-7.941-1.402-9.602-2.168l-.859-.37M214.301 263.273H113.957V.777a247.158 247.158 0 0 1 20.875 12.961c120.746 83.328 89.008 227.246 79.469 249.535M111.289 263.273H10.949c-5.12-11.937-16.582-58.746-7.64-112.445h107.98v112.445M3.79 148.152c8.198-45.91 31.581-96.437 86.628-134.414A247.299 247.299 0 0 1 111.289.778v147.374H3.789" transform="matrix(.13333 0 0 -.13333 0 35.747)"/><path style="fill:#fff;fill-opacity:1;fill-rule:nonzero;stroke:none" d="M111.289 263.273V150.828H3.309c.148-.883.32-1.789.48-2.676h107.5V.778c.461-.255.875-.524 1.336-.782.465.258.871.527 1.332.781v262.496h-2.668" transform="matrix(.13333 0 0 -.13333 0 35.747)"/><path style="fill:#fff;fill-opacity:1;fill-rule:nonzero;stroke:none" d="m57.05 242.574.052-3.129c2.09 1.696 5.125 3.039 7.558 3.528-1.336-6.024-4.297-7.547-7.527-8.086l-.113-5.071c2.624 2.11 6.585 4.954 9.609 5.571-1.715-7.66-5.406-10.449-9.496-11.024v-4.992c3.27 2.117 8.41 5.813 12.199 6.422-2.164-7.754-6.973-10.824-12.176-11.305l.012-4.593c3.262 2.105 8.375 5.421 12.164 6.011-2.078-7.492-7.14-12.043-12.152-12.73v-3.895c3.28 2.102 8.363 5.418 12.152 6.024-1.98-7.86-6.98-12.106-12.2-12.559v-3.172c3.923 2.332 10.364 6.371 14.891 7.039-2.59-8.425-8.68-13.008-14.89-13.59v-3.636c2.105 1.683 6.531 3.511 8.953 3.98-1.29-5.734-5.914-7.711-8.984-8.472l-.008-6.801c.722.019 1.43.144 2.172.23-.215 2.364 1.164 4.789 4.238 6.746.133-1.812-.898-4.457-1.496-6.234 1.656.379 3.297.828 4.933 1.527-.886 3.442.27 8.168 4.22 12.168.737-2.664.038-7.008-.31-9.886 1.739 1.058 3.497 2.214 5.196 3.687-1.91 3.27-1.555 8.352 2.129 13.441 1.094-2.5 1.144-7.328 1.176-10.246 1.5 1.598 3.117 3.391 4.546 5.332-2.601 3.172-2.695 6.239.415 12.414 1.085-2.5 2.066-6.25 2.105-9.171 1.348 1.738 2.305 3.179 3.453 5.265-.683 1.602-.367 2.813.457 3.852 1.149 1.437 2.867 2.668 4.41 1.722 2.137-.968 1.059-3.328.313-5.058-.531-1.223-1.445-2.051-3.047-1.996-1.102-1.977-2.656-4.121-4.004-5.836 3.113-.985 5.328-1.719 7.426-3.86-4.61-1.91-7.363-1.457-9.645.454-1.488-1.977-3.664-4.125-5.222-5.758 3.03-.934 5.023-1.778 7.496-4.293-5.02-2.078-8.735-1.434-10.97.937-1.745-1.496-3.42-3.047-5.222-4.105 2.969-1.52 5.125-3.121 6.918-5.59-5.71-1.309-9.484.316-11.148 3.523-1.703-.683-3.281-1.257-4.988-1.589 1.625-1.399 2.734-2.465 3.558-4.313-3.922.109-6.152 1.027-6.73 3.438-.79-.079-1.586-.61-2.371-.594v-7.664l-4.82 2.144v5.617c-.489.047-1.63.442-2.098.516-.696-2.281-2.414-3.168-6.176-3.238.812 1.855 1.27 3.179 3.176 4.152-1.743.453-3.375 1.289-5.082 2.078-1.496-3.562-4.88-5.043-10.903-3.664 1.762 2.473 4 4.699 7.016 5.731-1.543.972-2.969 1.925-4.492 3.39-2.196-2.461-5.946-3.3-11.075-1.168 2.094 2.137 4.18 3.844 7.375 4.453-1.605 1.586-3.09 3.532-4.62 5.465-2.282-2.011-5.747-2.672-10.45-.691 2.11 2.144 4.516 4.406 7.535 4.371-.922 1.324-1.746 2.828-2.703 4.355-1 .012-1.863 0-2.894 1.293-1.102 1.414-2.168 4.493-.305 5.465 1.14.992 3.809-.465 4.68-2.066.812-1.473.523-2.344.226-3.371.942-1.481 2-2.938 2.95-4.246-.66 4.23.546 7.726 1.648 10.222 3.773-5.261 3.07-9.8.969-13.043a63.723 63.723 0 0 1 4.453-4.984c-.442 2.969-.094 7.445 1 9.953 3.523-4.871 4.004-9.855 2.394-13.137 1.485-1.246 2.871-2.441 4.332-3.371-.797 2.793-1.16 7.418-.43 10.082 3.993-4.054 5.223-8.64 4.298-12.113 1.695-.769 3.343-1.441 5.046-1.84-.808 1.656-1.593 4.481-1.449 6.285 2.996-1.922 3.75-4.121 3.633-6.457.46-.054 1.738-.632 2.191-.632l-.105 6.707c-2.95.761-7.39 2.46-8.84 8.156 2.758-.656 6.274-1.309 8.84-3.594v3.559c-5.965.476-11.969 4.722-14.934 13.16 5.168-.906 10.16-3.36 14.934-6.477v3.117c-5.207.375-10.129 5.207-12.313 12.071 4.313-.813 8.317-2.762 12.313-5.606v3.918c-4.875.539-9.895 4.696-12.313 12.301 4.313-.805 8.317-2.664 12.313-5.512v4.41c-5.035.34-9.805 3.157-12.313 10.985 4.313-.809 8.317-3.07 12.313-5.922v4.902c-3.961.453-7.711 2.887-9.695 10.606 3.457-.813 6.504-2.281 9.695-5.141v5.082c-3.055.547-5.883 1.758-7.41 7.735 2.082-.481 4.61-.59 7.433-3.118l-.058 3.047c-2.305 3.449-1.79 4.961-1.516 7.692.254 2.472 1.176 4.308 3.848 4.433 2.66-.125 3.582-1.961 3.86-4.433.28-2.731.777-4.243-1.528-7.692" transform="matrix(.13333 0 0 -.13333 0 35.747)"/><path style="fill:#a41836;fill-opacity:1;fill-rule:nonzero;stroke:none" d="M148.035 222.836c.453-.242.977-.215 1.141.102.164.308-.063.796-.535 1.035-.481.25-.996.215-1.168-.114-.172-.316.074-.777.562-1.023M150.488 228.141c.383-.371.895-.442 1.141-.184.238.262.125.762-.266 1.117-.402.367-.914.449-1.136.172-.247-.234-.133-.754.261-1.105" transform="matrix(.13333 0 0 -.13333 0 35.747)"/><path style="fill:#fff;fill-opacity:1;fill-rule:nonzero;stroke:none" d="M168.219 141.492c.14 10.672.379 19.516.722 26.918 6.289-6.039 10.938-11.734 10.106-16.844-.617-3.742-4.246-7.039-10.828-10.074zm-.274 40.606a521.936 521.936 0 0 1-8.793 8.304l-.035 27.719a3.017 3.017 0 0 1 1.41.656l2.125-1.039 2.77-4.414.859.258-.176 2.816 2.192.446.008-4.457 1.765-.41c.957 1.921 3.535 5.48 6.004 6.586l1.324-8.708c-4.855-4.187-7.804-9.585-9.453-27.757zm-1.754-73.965c-1.3.539-2.531 1.074-3.711 1.59-1.789 51.75-5.789 57.332-9.32 59.718l1.695 3.914 4.321-2.937-.004 6.91c.797-.715 1.598-1.453 2.391-2.156a386.938 386.938 0 0 0 5.574-5.059c-.707-14.269-.985-34.05-.946-61.98zm-1.175-43.965c-.571 0-1.293.32-1.664 1.172l-.008.254-.071 7.207c1.95-.45 3.067-.852 3.032-3.438v-3.398l.101.027c.008-.215.008-.418.012-.633-.25-1.105-1.133-1.191-1.402-1.191zm-2.27 36.934a106.833 106.833 0 0 0 3.469-1.543c.012-3.438.027-6.985.047-10.657l-.047-.008v-6.73l.086.012c.004-1.36.015-2.696.019-4.082-.941.39-2.711 1.465-3.152 2.89-.113 7.313-.258 13.985-.422 20.118zm-11.351 16.679c-.274 2.321 2.289 5.332 8.421 9.907.286-5.028.547-10.711.774-17.094-5.328 2.492-8.902 4.812-9.195 7.187zm16.894 107.832.008-7.73-4.688 1.23-2.109 1.09c.277 1.559-.867 3.57-2.395 5.438l-.007 5.402zm6.117-132.273c-.035-.766-.992-2.23-6.301-3.88-.011 3.145-.027 6.22-.039 9.2 3.739-1.894 6.418-3.762 6.34-5.32zm-21.023 102.359c-17.61 15.957-18.352 23.239-17.231 26.153 1.032 2.671 4.121 3.39 5.778 3.39.457 0 .777-.058.965-.097.566-.129.589-.235.765-.95.281-1.121.692-2.824 4.074-3.929 4.161-1.383 7.278-2.11 9.512-2.215l.035-25.934c-1.308 1.207-2.508 2.324-3.898 3.582zm-6.32 28.379c.285.535 1.089.664 1.789.309.687-.36 1.007-1.071.75-1.645-.2-.347-.551-.523-.977-.523-.273 0-.551.062-.816.207-.399.215-.7.551-.809.906-.078.27-.059.531.063.746zm2.835 5.504c.321.391 1.204.367 1.778-.176.324-.273.512-.672.535-1.043.008-.281-.066-.539-.246-.722a.99.99 0 0 0-.735-.309c-.371 0-.757.18-1.066.473-.316.293-.519.703-.527 1.078a.911.911 0 0 0 .261.699zm19.797-49.168c1.602 19.074 4.504 24.363 9.297 28.359l.403.336-1.786 11.719-.925-.152c-2.555-.43-4.93-2.887-6.516-5.055l-.02 11.067-12.918 7.636.008-6.594c-1.379 1.387-2.668 2.477-3.164 2.848-1.461 1.078-2.754 1.578-4.062 1.578-.766 0-1.446-.172-2.055-.328-1.016-.258-1.715-.476-3.199.156-6.504 1.321-11.531-.125-14.32-4.05-2.61-3.692-3.036-9.391-1.106-14.871 1.594-4.446 4.559-8.969 6.773-11.981 1.282-1.762 12.602-13.695 15.215-16.383 1.883-1.91 3.914-3.797 5.977-5.679l.004-5.071-3.262 2.215-3.23-7.461.687-.426c2.859-1.785 5.707-6.414 7.641-30.625-7-2.57-16.41-10.957-16.664-19.621-.118-4.011 1.789-9.597 11.656-13.453 2.125-.832 4.441-1.73 6.73-2.676.125-4.406.231-9.12.321-14.148-1.77-.664-5.844-2.805-6.563-6.086-.578-2.61 1.016-5.137 4.735-7.52.656-.421 1.347-.675 2.043-.878.011-1.27.023-2.61.039-3.918-2.161-1.012-2.954-1.532-4.289-3.028-.665-.761-1.286-1.57-.915-2.343.075-.204.375-.672 1.141-.672.516 0 1.254.214 2.641.789.793.324 1.285.46 1.636.53.606-1.417 1.899-2.335 3.368-2.335 1.578 0 2.871 1.086 3.242 2.879-.004.539-.004 1.039-.008 1.574 1.762.867 2.879 2.442 2.957 4.395.09 2.226-1.09 4.382-3.031 5.84-.008 1.894-.02 3.71-.035 5.546 6.558 1.317 13.543 5.559 14.168 11.258.379 3.399-1.45 8.399-12.313 12.793-.668.274-1.297.527-1.941.793-.012 8.93.008 16.981.066 24.324 11.656 5.856 19.602 11.282 20.617 18.582 1.035 7.582-5.269 16.551-19.043 30.137M91.469 80.84h-6.961v17.77h6.96zm-.203-12.356H73.492v6.961h17.774zm-22.973-.195h-6.95v17.774h6.95zm-7.152 30.137h17.773v-6.961H61.141zm-.57 11.582h5.39v-5.41h-5.39zm-5.419-18.543h-6.945v17.769h6.945zm-6.746 31.676h17.766v-6.965H48.406zm30.692-37.079v-5.421h-5.403v5.422zm-7.141 37.079h6.957v-17.782h-6.957zm12.57-18.543-.02 23.941H42.04V86.063h13.113V62.097H97.63v42.5H84.527" transform="matrix(.13333 0 0 -.13333 0 35.747)"/></svg>